<?xml version="1.0" standalone="no"?><!DOCTYPE svg PUBLIC "-//W3C//DTD SVG 1.1//EN" "http://www.w3.org/Graphics/SVG/1.1/DTD/svg11.dtd"><svg t="1637665648742" class="icon" viewBox="0 0 1024 1024" version="1.1" xmlns="http://www.w3.org/2000/svg" p-id="8951" xmlns:xlink="http://www.w3.org/1999/xlink" width="200" height="200"><defs><style type="text/css"></style></defs><path d="M490.437837 822.633161v-15.869447a123.476074 123.476074 0 0 1 1.033197-14.812418H239.225332a61.648316 61.648316 0 0 1-45.418582-18.966232q-18.929783-19.008289-18.919969-46.450376a65.228754 65.228754 0 0 1 18.919969-47.02235q18.849875-19.545215 45.418582-19.507363h297.152592a290.089847 290.089847 0 0 1 102.635508-99.308813q63.831066-37.00441 140.446009-36.955344c5.444959 0 11.198334 0.182246 17.341436 0.570571 6.117868 0.259351 12.255363 0.825716 18.398465 1.599562V263.976756H666.088223q-28.570612 0-49.036872-13.212857a111.714178 111.714178 0 0 1-33.185649-32.776296 144.847957 144.847957 0 0 1-18.865296-42.680682 170.841887 170.841887 0 0 1-6.143102-43.359198V0H85.548243A37.586196 37.586196 0 0 0 58.474854 11.537593 40.266619 40.266619 0 0 0 47.270912 39.613336v778.971154H47.220444v133.264102a40.468492 40.468492 0 0 0 11.199736 28.049107 37.59601 37.59601 0 0 0 27.098623 11.538995h90.636692a26.321973 26.321973 0 0 0 2.809397 0.100936H541.514466a292.702978 292.702978 0 0 1-37.78106-78.630867 302.371846 302.371846 0 0 1-13.289961-90.273602zM193.80675 414.970619a61.620278 61.620278 0 0 1 45.42419-18.946606h382.933121a61.8586 61.8586 0 0 1 45.471854 18.946606Q686.484388 433.969095 686.502612 461.419593a65.361934 65.361934 0 0 1-18.866697 47.016742q-18.929783 19.553626-45.471854 19.533999H239.23094q-26.560295 0-45.42419-19.533999a65.179688 65.179688 0 0 1-18.914362-47.016742q0-27.449097 18.914362-46.450376z m0 0" fill="#A9B7EA" p-id="8952"></path><path d="M960.012252 721.022438a224.332578 224.332578 0 0 0-45.463443-69.240977 216.371219 216.371219 0 0 0-67.01617-47.078425 197.782096 197.782096 0 0 0-82.33327-17.327417 195.811032 195.811032 0 0 0-81.394002 17.327417 216.622158 216.622158 0 0 0-66.996543 47.078425 224.552675 224.552675 0 0 0-45.484471 69.242379 213.502942 213.502942 0 0 0-16.763856 84.196388 216.27589 216.27589 0 0 0 16.763856 85.163696 224.432113 224.432113 0 0 0 45.484471 69.215743 216.27589 216.27589 0 0 0 66.996543 47.078425 195.788602 195.788602 0 0 0 81.394002 17.32181 197.758264 197.758264 0 0 0 82.33327-17.32181 215.664664 215.664664 0 0 0 67.01617-47.078425 224.213417 224.213417 0 0 0 45.463443-69.215743 216.252057 216.252057 0 0 0 16.765257-85.165097 213.480512 213.480512 0 0 0-16.766659-84.194987zM792.994733 928.029a31.942169 31.942169 0 0 1-30.848691 30.799625 29.33885 29.33885 0 0 1-29.780447-29.735587l1.547691-90.896043-91.599794 0.79908a29.288382 29.288382 0 0 1-29.755213-29.735586 31.710856 31.710856 0 0 1 30.819251-30.799625l91.553532-2.276677 1.528065-90.896043a31.954786 31.954786 0 0 1 30.799625-30.798223 29.415955 29.415955 0 0 1 29.780447 29.832318l-0.845342 91.599794 90.90165-1.599562a29.415955 29.415955 0 0 1 29.780447 29.832317 31.858055 31.858055 0 0 1-30.799624 30.798223l-90.875015 1.476195-2.200974 91.594187z m0 0M691.993834 219.873151h123.212517V52.618712a43.122278 43.122278 0 0 0-11.973582-29.947272 40.244189 40.244189 0 0 0-28.936506-12.308635H610.285808V135.394982a85.793147 85.793147 0 0 0 23.951369 59.762767 80.432302 80.432302 0 0 0 57.751049 24.72101z m0 0" fill="#A9B7EA" p-id="8953"></path></svg>